<mxfile host="65bd71144e" pages="4">
    <diagram name="Page-1" id="c46omYC1yzMDPf6IL_mS">
        <mxGraphModel dx="717" dy="313" grid="1" gridSize="10" guides="1" tooltips="1" connect="1" arrows="1" fold="1" page="1" pageScale="1" pageWidth="850" pageHeight="1100" math="0" shadow="0">
            <root>
                <mxCell id="0"/>
                <mxCell id="1" parent="0"/>
                <mxCell id="36F0uArg4tRiiCwbfqQl-7" style="edgeStyle=orthogonalEdgeStyle;rounded=0;orthogonalLoop=1;jettySize=auto;html=1;entryX=0;entryY=0.5;entryDx=0;entryDy=0;" parent="1" source="36F0uArg4tRiiCwbfqQl-1" target="36F0uArg4tRiiCwbfqQl-4" edge="1">
                    <mxGeometry relative="1" as="geometry"/>
                </mxCell>
                <mxCell id="36F0uArg4tRiiCwbfqQl-8" style="rounded=0;orthogonalLoop=1;jettySize=auto;html=1;exitX=1;exitY=0;exitDx=0;exitDy=0;entryX=-0.008;entryY=0.688;entryDx=0;entryDy=0;entryPerimeter=0;" parent="1" source="36F0uArg4tRiiCwbfqQl-1" target="36F0uArg4tRiiCwbfqQl-2" edge="1">
                    <mxGeometry relative="1" as="geometry"/>
                </mxCell>
                <mxCell id="36F0uArg4tRiiCwbfqQl-14" style="rounded=0;orthogonalLoop=1;jettySize=auto;html=1;" parent="1" source="36F0uArg4tRiiCwbfqQl-1" target="36F0uArg4tRiiCwbfqQl-12" edge="1">
                    <mxGeometry relative="1" as="geometry"/>
                </mxCell>
                <mxCell id="36F0uArg4tRiiCwbfqQl-1" value="&lt;font style=&quot;font-size: 18px;&quot;&gt;login&lt;/font&gt;" style="ellipse;whiteSpace=wrap;html=1;" parent="1" vertex="1">
                    <mxGeometry x="90" y="320" width="120" height="80" as="geometry"/>
                </mxCell>
                <mxCell id="36F0uArg4tRiiCwbfqQl-10" style="rounded=0;orthogonalLoop=1;jettySize=auto;html=1;entryX=0;entryY=0.5;entryDx=0;entryDy=0;exitX=1;exitY=0.5;exitDx=0;exitDy=0;" parent="1" source="36F0uArg4tRiiCwbfqQl-2" target="36F0uArg4tRiiCwbfqQl-5" edge="1">
                    <mxGeometry relative="1" as="geometry"/>
                </mxCell>
                <mxCell id="36F0uArg4tRiiCwbfqQl-17" style="edgeStyle=orthogonalEdgeStyle;rounded=0;orthogonalLoop=1;jettySize=auto;html=1;" parent="1" source="36F0uArg4tRiiCwbfqQl-2" target="36F0uArg4tRiiCwbfqQl-4" edge="1">
                    <mxGeometry relative="1" as="geometry"/>
                </mxCell>
                <mxCell id="36F0uArg4tRiiCwbfqQl-2" value="&lt;font style=&quot;font-size: 18px;&quot;&gt;create&lt;br&gt;game&lt;br&gt;&lt;/font&gt;" style="ellipse;whiteSpace=wrap;html=1;" parent="1" vertex="1">
                    <mxGeometry x="320" y="200" width="120" height="80" as="geometry"/>
                </mxCell>
                <mxCell id="36F0uArg4tRiiCwbfqQl-9" style="edgeStyle=orthogonalEdgeStyle;rounded=0;orthogonalLoop=1;jettySize=auto;html=1;exitX=1;exitY=0.5;exitDx=0;exitDy=0;" parent="1" source="36F0uArg4tRiiCwbfqQl-4" target="36F0uArg4tRiiCwbfqQl-6" edge="1">
                    <mxGeometry relative="1" as="geometry"/>
                </mxCell>
                <mxCell id="36F0uArg4tRiiCwbfqQl-16" style="rounded=0;orthogonalLoop=1;jettySize=auto;html=1;entryX=0.5;entryY=0;entryDx=0;entryDy=0;" parent="1" source="36F0uArg4tRiiCwbfqQl-4" target="36F0uArg4tRiiCwbfqQl-12" edge="1">
                    <mxGeometry relative="1" as="geometry"/>
                </mxCell>
                <mxCell id="36F0uArg4tRiiCwbfqQl-4" value="&lt;font style=&quot;font-size: 18px;&quot;&gt;join game&lt;br&gt;&lt;/font&gt;" style="ellipse;whiteSpace=wrap;html=1;" parent="1" vertex="1">
                    <mxGeometry x="320" y="320" width="120" height="80" as="geometry"/>
                </mxCell>
                <mxCell id="36F0uArg4tRiiCwbfqQl-5" value="&lt;font style=&quot;font-size: 18px;&quot;&gt;stop/delete the game&lt;br&gt;&lt;/font&gt;" style="ellipse;whiteSpace=wrap;html=1;" parent="1" vertex="1">
                    <mxGeometry x="540" y="200" width="120" height="80" as="geometry"/>
                </mxCell>
                <mxCell id="36F0uArg4tRiiCwbfqQl-6" value="&lt;font style=&quot;font-size: 18px;&quot;&gt;play&lt;br&gt;(submit moves)&lt;br&gt;&lt;/font&gt;" style="ellipse;whiteSpace=wrap;html=1;" parent="1" vertex="1">
                    <mxGeometry x="540" y="320" width="120" height="80" as="geometry"/>
                </mxCell>
                <mxCell id="36F0uArg4tRiiCwbfqQl-12" value="&lt;font style=&quot;font-size: 18px;&quot;&gt;logout/&lt;br&gt;quit the game&lt;/font&gt;" style="ellipse;whiteSpace=wrap;html=1;" parent="1" vertex="1">
                    <mxGeometry x="310" y="470" width="140" height="100" as="geometry"/>
                </mxCell>
            </root>
        </mxGraphModel>
    </diagram>
    <diagram id="cU3Z5_cmkuihnhptzc4P" name="login">
        <mxGraphModel dx="717" dy="313" grid="1" gridSize="10" guides="1" tooltips="1" connect="1" arrows="1" fold="1" page="1" pageScale="1" pageWidth="850" pageHeight="1100" math="0" shadow="0">
            <root>
                <mxCell id="0"/>
                <mxCell id="1" parent="0"/>
                <mxCell id="UhIbwCXKOw11Df3hRmq9-3" value="ok" style="rounded=1;whiteSpace=wrap;html=1;" parent="1" vertex="1">
                    <mxGeometry x="720" y="120" width="60" height="40" as="geometry"/>
                </mxCell>
                <mxCell id="UhIbwCXKOw11Df3hRmq9-4" value="" style="endArrow=none;dashed=1;html=1;rounded=0;" parent="1" edge="1">
                    <mxGeometry width="50" height="50" relative="1" as="geometry">
                        <mxPoint x="40" y="200" as="sourcePoint"/>
                        <mxPoint x="800" y="199" as="targetPoint"/>
                    </mxGeometry>
                </mxCell>
                <mxCell id="UhIbwCXKOw11Df3hRmq9-1" value="input your name" style="text;html=1;strokeColor=none;fillColor=none;align=center;verticalAlign=middle;whiteSpace=wrap;rounded=0;" parent="1" vertex="1">
                    <mxGeometry x="330" y="125" width="110" height="30" as="geometry"/>
                </mxCell>
                <mxCell id="UhIbwCXKOw11Df3hRmq9-2" value="" style="rounded=0;whiteSpace=wrap;html=1;" parent="1" vertex="1">
                    <mxGeometry x="500" y="120" width="200" height="40" as="geometry"/>
                </mxCell>
                <mxCell id="d77xqPzVruc4_edADPmd-1" value="STAR REALMZ" style="text;html=1;strokeColor=none;fillColor=none;align=center;verticalAlign=middle;whiteSpace=wrap;rounded=0;" parent="1" vertex="1">
                    <mxGeometry x="370" y="450" width="110" height="30" as="geometry"/>
                </mxCell>
            </root>
        </mxGraphModel>
    </diagram>
    <diagram name="control_game" id="PixOpRGXKA5sVb4QZ9nO">
        <mxGraphModel dx="717" dy="313" grid="1" gridSize="10" guides="1" tooltips="1" connect="1" arrows="1" fold="1" page="1" pageScale="1" pageWidth="850" pageHeight="1100" math="0" shadow="0">
            <root>
                <mxCell id="cpBNTz8CviGRu7HynciY-0"/>
                <mxCell id="cpBNTz8CviGRu7HynciY-1" parent="cpBNTz8CviGRu7HynciY-0"/>
                <mxCell id="cpBNTz8CviGRu7HynciY-3" value="log out / quit game" style="rounded=1;whiteSpace=wrap;html=1;" parent="cpBNTz8CviGRu7HynciY-1" vertex="1">
                    <mxGeometry x="615" y="40" width="180" height="40" as="geometry"/>
                </mxCell>
                <mxCell id="cpBNTz8CviGRu7HynciY-4" value="" style="endArrow=none;dashed=1;html=1;rounded=0;" parent="cpBNTz8CviGRu7HynciY-1" edge="1">
                    <mxGeometry width="50" height="50" relative="1" as="geometry">
                        <mxPoint x="40" y="94" as="sourcePoint"/>
                        <mxPoint x="800" y="93" as="targetPoint"/>
                    </mxGeometry>
                </mxCell>
                <mxCell id="cpBNTz8CviGRu7HynciY-5" value="player: BOB" style="text;html=1;strokeColor=none;fillColor=none;align=center;verticalAlign=middle;whiteSpace=wrap;rounded=0;" parent="cpBNTz8CviGRu7HynciY-1" vertex="1">
                    <mxGeometry x="40" y="40" width="110" height="30" as="geometry"/>
                </mxCell>
                <mxCell id="x8rrLf9q_Lw7pgyX5Kep-0" value="create" style="rounded=1;whiteSpace=wrap;html=1;" parent="cpBNTz8CviGRu7HynciY-1" vertex="1">
                    <mxGeometry x="360" y="570" width="120" height="40" as="geometry"/>
                </mxCell>
                <mxCell id="x8rrLf9q_Lw7pgyX5Kep-2" value="name" style="rounded=0;whiteSpace=wrap;html=1;" parent="cpBNTz8CviGRu7HynciY-1" vertex="1">
                    <mxGeometry x="50" y="570" width="290" height="40" as="geometry"/>
                </mxCell>
                <mxCell id="QN5RKHfHLcdI-DwFY3Jk-0" value="create new game" style="text;html=1;strokeColor=none;fillColor=none;align=center;verticalAlign=middle;whiteSpace=wrap;rounded=0;" parent="cpBNTz8CviGRu7HynciY-1" vertex="1">
                    <mxGeometry x="40" y="535" width="120" height="30" as="geometry"/>
                </mxCell>
                <mxCell id="QN5RKHfHLcdI-DwFY3Jk-6" value="join" style="rounded=1;whiteSpace=wrap;html=1;" parent="cpBNTz8CviGRu7HynciY-1" vertex="1">
                    <mxGeometry x="670" y="210" width="120" height="40" as="geometry"/>
                </mxCell>
                <mxCell id="QN5RKHfHLcdI-DwFY3Jk-7" value="" style="rounded=0;whiteSpace=wrap;html=1;" parent="cpBNTz8CviGRu7HynciY-1" vertex="1">
                    <mxGeometry x="50" y="210" width="590" height="280" as="geometry"/>
                </mxCell>
                <mxCell id="QN5RKHfHLcdI-DwFY3Jk-8" value="ALL&amp;nbsp; games" style="text;html=1;strokeColor=none;fillColor=none;align=center;verticalAlign=middle;whiteSpace=wrap;rounded=0;" parent="cpBNTz8CviGRu7HynciY-1" vertex="1">
                    <mxGeometry x="35" y="170" width="120" height="30" as="geometry"/>
                </mxCell>
                <mxCell id="QN5RKHfHLcdI-DwFY3Jk-9" value="&amp;nbsp; &amp;nbsp;game 1&amp;nbsp; &amp;nbsp; &amp;nbsp; &amp;nbsp; &amp;nbsp; &amp;nbsp; &amp;nbsp; &amp;nbsp; &amp;nbsp;new&amp;nbsp;&amp;nbsp;" style="text;html=1;strokeColor=none;fillColor=none;align=left;verticalAlign=middle;whiteSpace=wrap;rounded=0;" parent="cpBNTz8CviGRu7HynciY-1" vertex="1">
                    <mxGeometry x="55" y="220" width="170" height="30" as="geometry"/>
                </mxCell>
                <mxCell id="QN5RKHfHLcdI-DwFY3Jk-10" value="&amp;nbsp; game 2&amp;nbsp; &amp;nbsp; &amp;nbsp; &amp;nbsp; &amp;nbsp; &amp;nbsp; &amp;nbsp; &amp;nbsp; &amp;nbsp;in progres&amp;nbsp;&amp;nbsp;" style="text;html=1;strokeColor=none;fillColor=none;align=left;verticalAlign=middle;whiteSpace=wrap;rounded=0;" parent="cpBNTz8CviGRu7HynciY-1" vertex="1">
                    <mxGeometry x="60" y="260" width="170" height="30" as="geometry"/>
                </mxCell>
                <mxCell id="QN5RKHfHLcdI-DwFY3Jk-12" value="&amp;nbsp; game c&amp;nbsp; &amp;nbsp; &amp;nbsp; &amp;nbsp; &amp;nbsp; &amp;nbsp; &amp;nbsp; &amp;nbsp; &amp;nbsp;finished&amp;nbsp; &amp;nbsp; &amp;nbsp; &amp;nbsp; &amp;nbsp; winnner:alice" style="text;html=1;strokeColor=none;fillColor=none;align=left;verticalAlign=middle;whiteSpace=wrap;rounded=0;" parent="cpBNTz8CviGRu7HynciY-1" vertex="1">
                    <mxGeometry x="60" y="300" width="560" height="30" as="geometry"/>
                </mxCell>
                <mxCell id="I1tlisVfDOViUdlrVcPN-0" value="" style="rounded=0;whiteSpace=wrap;html=1;" parent="cpBNTz8CviGRu7HynciY-1" vertex="1">
                    <mxGeometry x="42" y="1122" width="379" height="70" as="geometry"/>
                </mxCell>
                <mxCell id="I1tlisVfDOViUdlrVcPN-1" value="&amp;gt; hi!" style="text;html=1;strokeColor=none;fillColor=none;align=center;verticalAlign=middle;whiteSpace=wrap;rounded=0;" parent="cpBNTz8CviGRu7HynciY-1" vertex="1">
                    <mxGeometry x="51" y="1152" width="60" height="30" as="geometry"/>
                </mxCell>
                <mxCell id="I1tlisVfDOViUdlrVcPN-2" value="" style="rounded=0;whiteSpace=wrap;html=1;" parent="cpBNTz8CviGRu7HynciY-1" vertex="1">
                    <mxGeometry x="421" y="1122" width="380" height="70" as="geometry"/>
                </mxCell>
                <mxCell id="I1tlisVfDOViUdlrVcPN-3" value="BOB hi!" style="text;html=1;strokeColor=none;fillColor=none;align=center;verticalAlign=middle;whiteSpace=wrap;rounded=0;fontColor=#00CC00;fontStyle=1" parent="cpBNTz8CviGRu7HynciY-1" vertex="1">
                    <mxGeometry x="429" y="1127" width="60" height="30" as="geometry"/>
                </mxCell>
                <mxCell id="I1tlisVfDOViUdlrVcPN-4" value="Alice: you will lose!" style="text;html=1;strokeColor=none;fillColor=none;align=center;verticalAlign=middle;whiteSpace=wrap;rounded=0;fontColor=#0000CC;fontStyle=1" parent="cpBNTz8CviGRu7HynciY-1" vertex="1">
                    <mxGeometry x="424" y="1147" width="130" height="30" as="geometry"/>
                </mxCell>
                <mxCell id="M8tQQ8ncAlxh8fFHapZT-0" value="Chat:" style="text;html=1;align=center;verticalAlign=middle;resizable=0;points=[];autosize=1;strokeColor=none;fillColor=none;" parent="cpBNTz8CviGRu7HynciY-1" vertex="1">
                    <mxGeometry x="45" y="1078" width="50" height="30" as="geometry"/>
                </mxCell>
                <mxCell id="M8tQQ8ncAlxh8fFHapZT-1" value="delete" style="rounded=1;whiteSpace=wrap;html=1;" parent="cpBNTz8CviGRu7HynciY-1" vertex="1">
                    <mxGeometry x="670" y="260" width="120" height="40" as="geometry"/>
                </mxCell>
            </root>
        </mxGraphModel>
    </diagram>
    <diagram name="in-game" id="vJLofycdyiGdnRgj3MCz">
        <mxGraphModel dx="717" dy="313" grid="1" gridSize="10" guides="1" tooltips="1" connect="1" arrows="1" fold="1" page="1" pageScale="1" pageWidth="850" pageHeight="1100" math="0" shadow="0">
            <root>
                <mxCell id="2SIdY71t5lkrMxv4PmhK-0"/>
                <mxCell id="2SIdY71t5lkrMxv4PmhK-1" parent="2SIdY71t5lkrMxv4PmhK-0"/>
                <mxCell id="2SIdY71t5lkrMxv4PmhK-4" value="" style="endArrow=none;dashed=1;html=1;rounded=0;" parent="2SIdY71t5lkrMxv4PmhK-1" edge="1">
                    <mxGeometry width="50" height="50" relative="1" as="geometry">
                        <mxPoint x="40" y="81" as="sourcePoint"/>
                        <mxPoint x="800" y="80" as="targetPoint"/>
                    </mxGeometry>
                </mxCell>
                <mxCell id="2SIdY71t5lkrMxv4PmhK-5" value="player&amp;nbsp; BOB" style="text;html=1;strokeColor=none;fillColor=none;align=center;verticalAlign=middle;whiteSpace=wrap;rounded=0;" parent="2SIdY71t5lkrMxv4PmhK-1" vertex="1">
                    <mxGeometry x="42" y="24" width="110" height="30" as="geometry"/>
                </mxCell>
                <mxCell id="2SIdY71t5lkrMxv4PmhK-8" value="trade row" style="text;html=1;strokeColor=none;fillColor=none;align=center;verticalAlign=middle;whiteSpace=wrap;rounded=0;fontSize=15;" parent="2SIdY71t5lkrMxv4PmhK-1" vertex="1">
                    <mxGeometry x="170.5" y="441" width="120" height="30" as="geometry"/>
                </mxCell>
                <mxCell id="2SIdY71t5lkrMxv4PmhK-9" value="save game" style="rounded=1;whiteSpace=wrap;html=1;" parent="2SIdY71t5lkrMxv4PmhK-1" vertex="1">
                    <mxGeometry x="551" y="24" width="120" height="40" as="geometry"/>
                </mxCell>
                <mxCell id="2SIdY71t5lkrMxv4PmhK-11" value="quit" style="rounded=1;whiteSpace=wrap;html=1;" parent="2SIdY71t5lkrMxv4PmhK-1" vertex="1">
                    <mxGeometry x="681" y="24" width="120" height="40" as="geometry"/>
                </mxCell>
                <mxCell id="2SIdY71t5lkrMxv4PmhK-13" value="" style="rounded=0;whiteSpace=wrap;html=1;" parent="2SIdY71t5lkrMxv4PmhK-1" vertex="1">
                    <mxGeometry x="41" y="510" width="119" height="121" as="geometry"/>
                </mxCell>
                <mxCell id="dyTI1dAsQUHV4I4wcXxg-1" value="" style="rounded=0;whiteSpace=wrap;html=1;" parent="2SIdY71t5lkrMxv4PmhK-1" vertex="1">
                    <mxGeometry x="42" y="1122" width="379" height="70" as="geometry"/>
                </mxCell>
                <mxCell id="dyTI1dAsQUHV4I4wcXxg-2" value="&amp;gt; hi!" style="text;html=1;strokeColor=none;fillColor=none;align=center;verticalAlign=middle;whiteSpace=wrap;rounded=0;" parent="2SIdY71t5lkrMxv4PmhK-1" vertex="1">
                    <mxGeometry x="51" y="1152" width="60" height="30" as="geometry"/>
                </mxCell>
                <mxCell id="dyTI1dAsQUHV4I4wcXxg-4" value="" style="rounded=0;whiteSpace=wrap;html=1;" parent="2SIdY71t5lkrMxv4PmhK-1" vertex="1">
                    <mxGeometry x="421" y="1122" width="380" height="70" as="geometry"/>
                </mxCell>
                <mxCell id="dyTI1dAsQUHV4I4wcXxg-3" value="BOB hi!" style="text;html=1;strokeColor=none;fillColor=none;align=center;verticalAlign=middle;whiteSpace=wrap;rounded=0;fontColor=#00CC00;fontStyle=1" parent="2SIdY71t5lkrMxv4PmhK-1" vertex="1">
                    <mxGeometry x="429" y="1127" width="60" height="30" as="geometry"/>
                </mxCell>
                <mxCell id="dyTI1dAsQUHV4I4wcXxg-8" value="Alice: you will lose!" style="text;html=1;strokeColor=none;fillColor=none;align=center;verticalAlign=middle;whiteSpace=wrap;rounded=0;fontColor=#0000CC;fontStyle=1" parent="2SIdY71t5lkrMxv4PmhK-1" vertex="1">
                    <mxGeometry x="424" y="1147" width="130" height="30" as="geometry"/>
                </mxCell>
                <mxCell id="dyTI1dAsQUHV4I4wcXxg-18" value="explorers:" style="text;html=1;strokeColor=none;fillColor=none;align=center;verticalAlign=middle;whiteSpace=wrap;rounded=0;fontSize=15;" parent="2SIdY71t5lkrMxv4PmhK-1" vertex="1">
                    <mxGeometry x="30" y="441" width="120" height="30" as="geometry"/>
                </mxCell>
                <mxCell id="dyTI1dAsQUHV4I4wcXxg-19" style="edgeStyle=orthogonalEdgeStyle;rounded=0;orthogonalLoop=1;jettySize=auto;html=1;exitX=0.5;exitY=1;exitDx=0;exitDy=0;" parent="2SIdY71t5lkrMxv4PmhK-1" source="2SIdY71t5lkrMxv4PmhK-8" target="2SIdY71t5lkrMxv4PmhK-8" edge="1">
                    <mxGeometry relative="1" as="geometry"/>
                </mxCell>
                <mxCell id="dyTI1dAsQUHV4I4wcXxg-20" value="" style="endArrow=none;dashed=1;html=1;rounded=0;" parent="2SIdY71t5lkrMxv4PmhK-1" edge="1">
                    <mxGeometry width="50" height="50" relative="1" as="geometry">
                        <mxPoint x="440" y="720" as="sourcePoint"/>
                        <mxPoint x="998" y="720" as="targetPoint"/>
                    </mxGeometry>
                </mxCell>
                <mxCell id="dyTI1dAsQUHV4I4wcXxg-21" value="My bases" style="text;html=1;strokeColor=none;fillColor=none;align=center;verticalAlign=middle;whiteSpace=wrap;rounded=0;fontSize=15;" parent="2SIdY71t5lkrMxv4PmhK-1" vertex="1">
                    <mxGeometry x="877" y="680" width="120" height="30" as="geometry"/>
                </mxCell>
                <mxCell id="dyTI1dAsQUHV4I4wcXxg-22" value="" style="rounded=0;whiteSpace=wrap;html=1;" parent="2SIdY71t5lkrMxv4PmhK-1" vertex="1">
                    <mxGeometry x="200" y="510" width="119" height="121" as="geometry"/>
                </mxCell>
                <mxCell id="dyTI1dAsQUHV4I4wcXxg-23" value="" style="rounded=0;whiteSpace=wrap;html=1;" parent="2SIdY71t5lkrMxv4PmhK-1" vertex="1">
                    <mxGeometry x="360" y="510" width="119" height="121" as="geometry"/>
                </mxCell>
                <mxCell id="dyTI1dAsQUHV4I4wcXxg-24" value="" style="rounded=0;whiteSpace=wrap;html=1;" parent="2SIdY71t5lkrMxv4PmhK-1" vertex="1">
                    <mxGeometry x="511" y="510" width="119" height="121" as="geometry"/>
                </mxCell>
                <mxCell id="dyTI1dAsQUHV4I4wcXxg-25" value="" style="rounded=0;whiteSpace=wrap;html=1;" parent="2SIdY71t5lkrMxv4PmhK-1" vertex="1">
                    <mxGeometry x="661" y="510" width="119" height="121" as="geometry"/>
                </mxCell>
                <mxCell id="dyTI1dAsQUHV4I4wcXxg-26" value="" style="rounded=0;whiteSpace=wrap;html=1;" parent="2SIdY71t5lkrMxv4PmhK-1" vertex="1">
                    <mxGeometry x="810" y="510" width="119" height="121" as="geometry"/>
                </mxCell>
                <mxCell id="dyTI1dAsQUHV4I4wcXxg-27" value="" style="endArrow=none;dashed=1;html=1;rounded=0;" parent="2SIdY71t5lkrMxv4PmhK-1" edge="1">
                    <mxGeometry width="50" height="50" relative="1" as="geometry">
                        <mxPoint x="440" y="880" as="sourcePoint"/>
                        <mxPoint x="999" y="880" as="targetPoint"/>
                    </mxGeometry>
                </mxCell>
                <mxCell id="dyTI1dAsQUHV4I4wcXxg-28" value="My hand" style="text;html=1;strokeColor=none;fillColor=none;align=center;verticalAlign=middle;whiteSpace=wrap;rounded=0;fontSize=15;" parent="2SIdY71t5lkrMxv4PmhK-1" vertex="1">
                    <mxGeometry x="889" y="845" width="120" height="30" as="geometry"/>
                </mxCell>
                <mxCell id="dyTI1dAsQUHV4I4wcXxg-29" value="" style="rounded=0;whiteSpace=wrap;html=1;" parent="2SIdY71t5lkrMxv4PmhK-1" vertex="1">
                    <mxGeometry x="449.5" y="897" width="98.5" height="91" as="geometry"/>
                </mxCell>
                <mxCell id="dyTI1dAsQUHV4I4wcXxg-30" value="" style="rounded=0;whiteSpace=wrap;html=1;" parent="2SIdY71t5lkrMxv4PmhK-1" vertex="1">
                    <mxGeometry x="564.5" y="897" width="98.5" height="91" as="geometry"/>
                </mxCell>
                <mxCell id="dyTI1dAsQUHV4I4wcXxg-31" value="" style="rounded=0;whiteSpace=wrap;html=1;" parent="2SIdY71t5lkrMxv4PmhK-1" vertex="1">
                    <mxGeometry x="677" y="896" width="98.5" height="91" as="geometry"/>
                </mxCell>
                <mxCell id="dyTI1dAsQUHV4I4wcXxg-32" value="" style="rounded=0;whiteSpace=wrap;html=1;" parent="2SIdY71t5lkrMxv4PmhK-1" vertex="1">
                    <mxGeometry x="786.5" y="896" width="98.5" height="91" as="geometry"/>
                </mxCell>
                <mxCell id="dyTI1dAsQUHV4I4wcXxg-33" value="" style="rounded=0;whiteSpace=wrap;html=1;" parent="2SIdY71t5lkrMxv4PmhK-1" vertex="1">
                    <mxGeometry x="898.5" y="896" width="98.5" height="91" as="geometry"/>
                </mxCell>
                <mxCell id="dyTI1dAsQUHV4I4wcXxg-34" value="" style="rounded=0;whiteSpace=wrap;html=1;" parent="2SIdY71t5lkrMxv4PmhK-1" vertex="1">
                    <mxGeometry x="889" y="733" width="98.5" height="91" as="geometry"/>
                </mxCell>
                <mxCell id="dyTI1dAsQUHV4I4wcXxg-35" value="" style="rounded=0;whiteSpace=wrap;html=1;" parent="2SIdY71t5lkrMxv4PmhK-1" vertex="1">
                    <mxGeometry x="780" y="733" width="98.5" height="91" as="geometry"/>
                </mxCell>
                <mxCell id="dyTI1dAsQUHV4I4wcXxg-37" value="" style="rounded=0;whiteSpace=wrap;html=1;" parent="2SIdY71t5lkrMxv4PmhK-1" vertex="1">
                    <mxGeometry x="41" y="720" width="199" height="300" as="geometry"/>
                </mxCell>
                <mxCell id="ZGoxio-0MFlbVlhC5gSc-0" value="main rule" style="rounded=0;whiteSpace=wrap;html=1;" parent="2SIdY71t5lkrMxv4PmhK-1" vertex="1">
                    <mxGeometry x="251" y="720" width="149" height="40" as="geometry"/>
                </mxCell>
                <mxCell id="ZGoxio-0MFlbVlhC5gSc-2" value="allied rule" style="rounded=0;whiteSpace=wrap;html=1;" parent="2SIdY71t5lkrMxv4PmhK-1" vertex="1">
                    <mxGeometry x="251" y="772" width="149" height="40" as="geometry"/>
                </mxCell>
                <mxCell id="ZGoxio-0MFlbVlhC5gSc-3" value="kamikadze" style="rounded=0;whiteSpace=wrap;html=1;" parent="2SIdY71t5lkrMxv4PmhK-1" vertex="1">
                    <mxGeometry x="251" y="825" width="149" height="40" as="geometry"/>
                </mxCell>
                <mxCell id="ZGoxio-0MFlbVlhC5gSc-4" value="apply/cancel" style="rounded=0;whiteSpace=wrap;html=1;" parent="2SIdY71t5lkrMxv4PmhK-1" vertex="1">
                    <mxGeometry x="251" y="875" width="149" height="40" as="geometry"/>
                </mxCell>
                <mxCell id="ZGoxio-0MFlbVlhC5gSc-6" value="HP left:" style="text;html=1;strokeColor=none;fillColor=none;align=left;verticalAlign=middle;whiteSpace=wrap;rounded=0;fontSize=15;" parent="2SIdY71t5lkrMxv4PmhK-1" vertex="1">
                    <mxGeometry x="40" y="680" width="120" height="30" as="geometry"/>
                </mxCell>
                <mxCell id="ZGoxio-0MFlbVlhC5gSc-7" value="money:" style="text;html=1;strokeColor=none;fillColor=none;align=left;verticalAlign=middle;whiteSpace=wrap;rounded=0;fontSize=15;" parent="2SIdY71t5lkrMxv4PmhK-1" vertex="1">
                    <mxGeometry x="200" y="680" width="120" height="30" as="geometry"/>
                </mxCell>
                <mxCell id="ZGoxio-0MFlbVlhC5gSc-8" value="damage" style="text;html=1;strokeColor=none;fillColor=none;align=left;verticalAlign=middle;whiteSpace=wrap;rounded=0;fontSize=15;" parent="2SIdY71t5lkrMxv4PmhK-1" vertex="1">
                    <mxGeometry x="340" y="680" width="120" height="30" as="geometry"/>
                </mxCell>
                <mxCell id="ZGoxio-0MFlbVlhC5gSc-9" value="trade" style="rounded=0;whiteSpace=wrap;html=1;" parent="2SIdY71t5lkrMxv4PmhK-1" vertex="1">
                    <mxGeometry x="251" y="930" width="149" height="40" as="geometry"/>
                </mxCell>
                <mxCell id="ZGoxio-0MFlbVlhC5gSc-10" value="fight" style="rounded=0;whiteSpace=wrap;html=1;" parent="2SIdY71t5lkrMxv4PmhK-1" vertex="1">
                    <mxGeometry x="251" y="980" width="149" height="40" as="geometry"/>
                </mxCell>
                <mxCell id="ZGoxio-0MFlbVlhC5gSc-11" value="finish turn" style="rounded=0;whiteSpace=wrap;html=1;" parent="2SIdY71t5lkrMxv4PmhK-1" vertex="1">
                    <mxGeometry x="850" y="1050" width="150" height="40" as="geometry"/>
                </mxCell>
                <mxCell id="NKUyuB2GEBczOAqZTOO7-0" value="&amp;gt; hi!" style="text;html=1;strokeColor=none;fillColor=none;align=center;verticalAlign=middle;whiteSpace=wrap;rounded=0;" parent="2SIdY71t5lkrMxv4PmhK-1" vertex="1">
                    <mxGeometry x="61" y="1162" width="60" height="30" as="geometry"/>
                </mxCell>
                <mxCell id="NKUyuB2GEBczOAqZTOO7-1" value="Chat:" style="text;html=1;align=center;verticalAlign=middle;resizable=0;points=[];autosize=1;strokeColor=none;fillColor=none;" parent="2SIdY71t5lkrMxv4PmhK-1" vertex="1">
                    <mxGeometry x="45" y="1078" width="50" height="30" as="geometry"/>
                </mxCell>
            </root>
        </mxGraphModel>
    </diagram>
</mxfile>